<?xml version="1.0" standalone="no"?>
<!DOCTYPE svg PUBLIC "-//W3C//DTD SVG 20010904//EN"
 "http://www.w3.org/TR/2001/REC-SVG-20010904/DTD/svg10.dtd">
<svg version="1.0" xmlns="http://www.w3.org/2000/svg"
 width="50.000000pt" height="50.000000pt" viewBox="0 0 50.000000 50.000000"
 preserveAspectRatio="xMidYMid meet">

<g transform="translate(0.000000,50.000000) scale(0.100000,-0.100000)"
fill="#000000" stroke="none">
<path d="M176 492 c-2 -4 -1 -14 4 -22 6 -9 3 -24 -8 -42 -12 -21 -14 -34 -6
-55 11 -33 29 -29 29 7 0 14 6 36 14 49 10 18 10 29 2 47 -11 24 -26 31 -35
16z"/>
<path d="M274 475 c4 -16 1 -34 -9 -48 -20 -29 -19 -50 4 -71 22 -20 40 -4 21
19 -9 11 -8 19 4 37 19 27 21 59 4 76 -20 20 -31 14 -24 -13z"/>
<path d="M365 471 c4 -20 1 -38 -10 -55 -16 -24 -16 -28 -1 -51 20 -30 39 -24
30 8 -3 13 2 35 10 51 11 22 12 34 4 52 -17 36 -41 32 -33 -5z"/>
<path d="M66 301 c-4 -5 -4 -16 -1 -23 3 -8 -4 -20 -19 -27 -27 -15 -46 -50
-46 -87 0 -33 51 -84 84 -84 16 0 27 -7 31 -20 4 -12 16 -30 28 -40 18 -18 35
-20 138 -20 154 0 152 -2 190 160 15 69 28 131 29 138 0 9 -49 12 -214 12
-118 0 -217 -4 -220 -9z m23 -127 c7 -30 10 -58 7 -61 -12 -12 -56 17 -62 42
-6 25 17 75 35 75 4 0 13 -25 20 -56z"/>
</g>
</svg>
