<?xml version="1.0" standalone="no"?>
<!DOCTYPE svg PUBLIC "-//W3C//DTD SVG 20010904//EN"
 "http://www.w3.org/TR/2001/REC-SVG-20010904/DTD/svg10.dtd">
<svg version="1.0" xmlns="http://www.w3.org/2000/svg"
 width="50.000000pt" height="50.000000pt" viewBox="0 0 50.000000 50.000000"
 preserveAspectRatio="xMidYMid meet">

<g transform="translate(0.000000,50.000000) scale(0.100000,-0.100000)"
fill="#000000" stroke="none">
<path d="M215 467 c-5 -13 -16 -15 -55 -10 -43 5 -51 3 -74 -20 -29 -29 -34
-72 -12 -102 12 -17 11 -22 -10 -42 -13 -12 -24 -27 -24 -32 0 -5 27 -40 60
-78 33 -37 67 -82 75 -100 20 -41 48 -50 83 -27 15 10 68 38 117 62 50 24 92
45 93 47 3 3 -203 270 -234 304 -11 13 -14 12 -19 -2z m-47 -36 c10 -6 5 -18
-20 -49 -37 -46 -52 -48 -56 -8 -6 47 39 81 76 57z"/>
</g>
</svg>
